<svg width="53" height="15" viewBox="0 0 53 15" xmlns="http://www.w3.org/2000/svg"><title>Fame.</title><path d="M0 14.69V0h9.24v2.714H2.846V6.34H8.54v2.63H2.866v5.72H0zm9.39-2.777c0-.456.08-.86.238-1.212.158-.35.374-.66.65-.92.274-.263.594-.47.96-.623.363-.15.758-.262 1.185-.33l2.495-.374c.29-.04.488-.128.598-.26a.703.703 0 0 0 .165-.465c0-.36-.14-.67-.42-.932-.283-.263-.713-.394-1.29-.394-.606 0-1.07.166-1.393.497a1.87 1.87 0 0 0-.546 1.16l-2.433-.52c.04-.4.165-.8.37-1.2.207-.4.49-.76.847-1.078a4.258 4.258 0 0 1 1.32-.777c.522-.2 1.127-.3 1.815-.3.796 0 1.477.107 2.04.32.565.215 1.022.498 1.372.85.35.353.606.764.764 1.233.158.47.237.96.237 1.47v5.015a12.268 12.268 0 0 0 .124 1.616H15.97a7.748 7.748 0 0 1-.103-1.222c-.26.4-.636.752-1.124 1.055-.488.304-1.11.456-1.867.456-.536 0-1.02-.087-1.454-.26a3.48 3.48 0 0 1-1.103-.683 2.87 2.87 0 0 1-.928-2.124zm4.064 1.015c.29 0 .567-.038.835-.114.267-.076.505-.207.71-.393.207-.186.372-.428.496-.725s.185-.673.185-1.13v-.455l-2.288.353a1.8 1.8 0 0 0-.897.383c-.24.2-.36.5-.36.9 0 .305.11.578.33.82.22.24.55.362.99.362zm7.018 1.76V4.497h2.62V5.74c.137-.25.316-.47.536-.664a3.04 3.04 0 0 1 .732-.477c.27-.125.55-.222.846-.29.296-.07.58-.104.856-.104.7 0 1.313.145 1.836.435.522.29.914.712 1.175 1.265.4-.622.867-1.06 1.403-1.316s1.14-.384 1.815-.384c.47 0 .922.072 1.362.217.44.145.832.377 1.176.694.344.318.62.722.825 1.212.206.49.31 1.073.31 1.75v6.61h-2.66V8.64c0-.553-.142-1.012-.424-1.378-.283-.366-.74-.55-1.373-.55-.59 0-1.052.198-1.382.59-.33.395-.495.868-.495 1.42v5.967h-2.722V8.64c0-.553-.145-1.012-.433-1.378-.29-.366-.743-.55-1.362-.55-.605 0-1.072.194-1.402.58-.33.388-.494.864-.494 1.43v5.967h-2.744zm24.16-6.256a2.51 2.51 0 0 0-.156-.735 1.773 1.773 0 0 0-.412-.642 2.13 2.13 0 0 0-.7-.456 2.592 2.592 0 0 0-1.002-.177 2.282 2.282 0 0 0-1.65.663 2.11 2.11 0 0 0-.62 1.346h4.54zm2.557 3.336c-.125.442-.32.86-.59 1.253a4.326 4.326 0 0 1-.98 1.027c-.384.29-.834.52-1.35.694a5.333 5.333 0 0 1-1.7.26c-.703 0-1.37-.12-2.002-.363a4.84 4.84 0 0 1-1.67-1.067 5.116 5.116 0 0 1-1.146-1.72c-.282-.676-.422-1.443-.422-2.3 0-.814.137-1.553.412-2.216a5.166 5.166 0 0 1 1.104-1.688 4.953 4.953 0 0 1 3.475-1.46c1.582 0 2.813.47 3.693 1.408.88.94 1.32 2.23 1.32 3.874 0 .194-.007.377-.02.55-.014.172-.02.272-.02.3h-7.26c.012.33.09.638.236.922a2.513 2.513 0 0 0 1.35 1.222c.302.117.625.176.97.176.645 0 1.15-.145 1.515-.435.365-.29.63-.663.794-1.12l2.29.685zm1.51 1.18c0-.524.182-.97.547-1.335.364-.366.808-.55 1.33-.55.26 0 .51.05.743.146a1.842 1.842 0 0 1 1.01 1.003c.097.228.145.473.145.736a1.87 1.87 0 0 1-.547 1.335 1.842 1.842 0 0 1-.608.404c-.234.096-.482.144-.743.144-.522 0-.966-.183-1.33-.55a1.823 1.823 0 0 1-.547-1.335z" fill="#FFF" fill-rule="evenodd"/></svg>